<svg id="Layer_1" data-name="Layer 1" xmlns="http://www.w3.org/2000/svg" viewBox="0 0 267.91 305.28"><defs><style>.cls-1{fill:#1eb2a6;}.cls-2{fill:#f2f2f2;}.cls-3{fill:#fefefe;}.cls-4{fill:#f48634;}</style></defs><title>inkwell</title><path class="cls-1" d="M169.64,324.42A113.08,113.08,0,0,1,303.69,142.81c.53.34,1.05.7,1.57,1.05-1.7,1.69-3.42,3.38-5.12,5.08-6,6-12,12.09-17.92,18.28A303.79,303.79,0,0,0,252.66,203a312.1,312.1,0,0,0-18.48,30.35c-2.63,4.91-5.15,9.88-7.73,14.82-.78-1-1.61-2-2.34-3-.45-.64-.77-.62-1.16,0a9,9,0,0,1-1.82-2.16c-.51-.66-.78-.64-1.12.11-.81,1.76-1.66,3.5-2.51,5.24q-7.12,14.65-14.28,29.32l-3.29,6.71c-1.05-1.25-1-2.88-2.08-4.15-.36.84-.69,1.55-1,2.27-1.84,4.77-3.08,9.72-4.56,14.6-.58,1.89-.58,1.86-2.38,1.12-3.8-1.54-7.68-2.72-11.85-2.53-3.81.18-5.37,2.19-4.51,5.87a18.79,18.79,0,0,0,2.86,6.09c.83,1.27.84,1.26,1.84.26l1.42,2.22q-2.78,4-5.56,8C172.65,320.18,171.14,322.3,169.64,324.42Z" transform="translate(-129.34 -82.69)"/><path class="cls-2" d="M226.45,248.16c2.58-4.94,5.1-9.91,7.73-14.82A312.1,312.1,0,0,1,252.66,203a303.79,303.79,0,0,1,29.56-35.77C288.1,161,294.1,155,300.14,148.94c1.7-1.7,3.42-3.39,5.12-5.08,6.08-5.55,12.53-10.64,19-15.66q16.13-12.4,32.91-23.89c7.58-5.17,15.25-10.2,23.22-14.75A73.6,73.6,0,0,1,393,83.49c.94-.32,1.91-.51,2.87-.74.78-.19,1.13.07,1.21.93a44,44,0,0,1-.58,11.46,118.37,118.37,0,0,1-9.34,30.15,150.94,150.94,0,0,1-12.34,21.33A174,174,0,0,1,356,170.05a127.92,127.92,0,0,1-19.56,16.11c-4.17,2.87-8.54,5.43-12.61,8.44-.26.19-.77.31-.64.72.06.21.5.34.79.42a14.41,14.41,0,0,0,2.93.91,2,2,0,0,0,1,.5l6.11,2.2-.51.85c-.28,0-.38.24-.54.4-1.9,1.78-3.76,3.61-5.71,5.35a250.44,250.44,0,0,1-23,18.08A149.78,149.78,0,0,1,285,235.93a18,18,0,0,0-4,2.31c2.31,0,4.29.29,6.29.11l10.94.49-2.64,1.82a9.23,9.23,0,0,0-.95.45c-8.74,5.39-17.67,10.43-26.52,15.62a32.44,32.44,0,0,0-5.29,3.65,20.73,20.73,0,0,0,6.32-.39l3.15-.31a25.46,25.46,0,0,1,5.83-.26c-1.05,1.2-2.52,1.44-3.5,2.4a6.56,6.56,0,0,0-1,.35c-6,3-12.17,5.62-18.08,8.79a12,12,0,0,0-3.22,2.13,32,32,0,0,0,5.21.51c1.31.49,2.76.23,4.16.68-.45.69-1.28.79-1.65,1.41a8.38,8.38,0,0,0-.95.47l-14.86,9.68a.56.56,0,0,0-.3.53,24.23,24.23,0,0,0,3.8,1.16c.65.28,1.44.51.55,1.4a69.24,69.24,0,0,1-9.32,6.3c-10.41,5.7-21.32,10-33.13,11.74l-.87.16c.16.57.67.78,1,1.1,4,3.59,7.72,7.47,10,12.5a10.42,10.42,0,0,1,.89,3.55,3.94,3.94,0,0,1-3.11,4.52,12.68,12.68,0,0,1-5.65.16,27.64,27.64,0,0,1-6.84-1.92c-.83-.36-1.28-.3-1.74.59-2.67,5.2-5.44,10.35-8.09,15.56-3.32,6.52-6.56,13.08-9.79,19.64-.37.75-1,.82-1.62,1a84.56,84.56,0,0,0-12.21,4.56,57.22,57.22,0,0,0-17,12.12c-1.87,1.94-1.88,1.93-4.05.37-2-1.44-1.94-1.39-.47-3.29,7.05-9.11,16.59-14.16,27.56-16.84a2.67,2.67,0,0,0,2-1.6q8.63-17.44,17.31-34.84c.93-1.88,1.86-3.76,2.77-5.65a14.77,14.77,0,0,1,3.82-5c1.65,1.42,3.32,2.83,5.1,4.1a17.5,17.5,0,0,1-2.1,4c-.34.62-.36,1,.4,1.19a9.94,9.94,0,0,0,2.57.73,6,6,0,0,0,3.35.44,1.65,1.65,0,0,0,1.64-2.11,5.84,5.84,0,0,0-1-2.49,35,35,0,0,0-8.08-8.35c-2.53-2.32-2.51-2.31-4.69.25-1.49,1.75-2.26,3.89-3.27,5.89-4.69,9.32-9.31,18.67-13.95,28-2,4-3.94,7.92-5.87,11.9a1.76,1.76,0,0,1-1.28,1.07c-9.39,2.18-17.39,7-24.68,13.12a85.58,85.58,0,0,0-11.26,11.5,1.57,1.57,0,0,0-.43,1.87,2.31,2.31,0,0,1-1.51,3,2.17,2.17,0,0,1-2.79-1.1,2.41,2.41,0,0,1,1.13-3.22,2.66,2.66,0,0,0,1.41-1.29c5.58-10.7,11.65-21.11,18-31.35a1.38,1.38,0,0,1,1.49-.79c2.09.13,4.5-1.7,5.47-4.08.68-1.67,1.05-3.35-.23-4.93-.37-.45,0-.71.18-1q4.6-7.17,9.46-14.2c.31-.46.57-.95.85-1.42,1.5-2.12,3-4.24,4.51-6.37q2.79-4,5.56-8c1.29-1.73,2.59-3.46,3.87-5.2.29-.38.53-.81,1.13-.58h0l.32,0a18.11,18.11,0,0,1,2.85,1.11c1,.59,1.4.2,1.67-.71.07-.22.14-.44.2-.66.5-.55.05-.75-.36-.94a19.41,19.41,0,0,0-5.77-1.72c-.36,0-.72-.1-1,.26-1.44,2.06-3.11,4-4.37,6.17-1,1-1,1-1.84-.25a18.79,18.79,0,0,1-2.86-6.09c-.86-3.68.7-5.69,4.51-5.87,4.17-.19,8.05,1,11.85,2.53,1.8.74,1.8.77,2.38-1.12,1.48-4.88,2.72-9.83,4.56-14.6.27-.72.6-1.43,1-2.27,1.09,1.27,1,2.9,2.08,4.15l3.29-6.71Q210.36,263,217.5,248.3c.85-1.74,1.7-3.48,2.51-5.24.34-.75.61-.77,1.12-.11a9,9,0,0,0,1.82,2.16,28.12,28.12,0,0,0,3,4.1A1.5,1.5,0,0,0,226.45,248.16Zm-9.85,33.48,0,0a.31.31,0,0,0,.26-.36h0c.51-.12.76-.55,1.07-.89l13.46-15q9.16-10.19,18.34-20.34,11.19-12.44,22.34-24.88t22.63-25.1q12.06-13.4,24.08-26.82c2.18-2.44,4.51-4.75,6.48-7.38a8.37,8.37,0,0,0,.7-.62q8-8.88,16.05-17.78l31.47-35c1.24-1.38,2.46-2.78,3.69-4.18-.33-.22-.42-.06-.58.08-1.35,1.14-2.71,2.28-4.09,3.4Q358,118.63,344.18,131.36,331.56,143,319.4,155.18q-10.12,10.08-20,20.43-11.49,12.07-22.57,24.53-14.3,16.1-28,32.67c-9,10.93-17.82,22-26.13,33.47a229.57,229.57,0,0,0-17,26.27,4,4,0,0,0-.8,2c3.85-4.15,7.87-8.13,11.32-12.64A.28.28,0,0,0,216.6,281.64Z" transform="translate(-129.34 -82.69)"/><path class="cls-1" d="M295.63,240.66l2.64-1.82-10.94-.49a7.4,7.4,0,0,1,.69-.45,152,152,0,0,0,19.15-11.84q10-7,19.26-14.81c3.39-2.85,6.67-5.82,9.8-9,.61-.61.6-.91-.25-1.18s-1.63-.6-2.45-.91l.51-.85-6.11-2.2a2,2,0,0,1-1-.5,17.2,17.2,0,0,1,3.66-2.75c3.8-2.56,7.75-4.91,11.45-7.62.56-.4.87-.48,1.25.27a113.23,113.23,0,0,1,9.7,27.31A112.95,112.95,0,0,1,252.31,350.42a113.87,113.87,0,0,1-33.51-2,109.87,109.87,0,0,1-21.22-6.76c-1-.42-1-.83-.55-1.67q2.82-5.28,5.57-10.61c.32-.63.65-.7,1.3-.44a32.12,32.12,0,0,0,7.75,2.16,11.61,11.61,0,0,0,4.94-.23A4.07,4.07,0,0,0,219.8,326a15.68,15.68,0,0,0-2.66-6.54,43.11,43.11,0,0,0-8.27-9.25c-.31-.27-.91-.48-.75-.94s.76-.3,1.17-.37a98.71,98.71,0,0,0,37.79-14.88A28.28,28.28,0,0,0,251,291c.91-.85.9-.86-.32-1.27l-2.35-.79c.89-.89.1-1.12-.55-1.4l17-11.16-4.65-.68c.37-.62,1.2-.72,1.65-1.41-1.4-.45-2.85-.19-4.16-.68a17.53,17.53,0,0,1,3-1.7c5.37-2.59,10.75-5.14,16.11-7.76a21.33,21.33,0,0,0,4.41-2.6,38.7,38.7,0,0,0-6.4.28c1-1,2.45-1.2,3.5-2.4a25.46,25.46,0,0,0-5.83.26l-3.15.31c1.23-.78,2.42-1.63,3.69-2.34C282,252.5,291,247.1,300,241.67c.26-.16.68-.24.69-.73Z" transform="translate(-129.34 -82.69)"/><path class="cls-1" d="M204.83,317.75c-1.78-1.27-3.45-2.68-5.1-4.1l1.87-2.47a35,35,0,0,1,8.08,8.35,5.84,5.84,0,0,1,1,2.49,1.65,1.65,0,0,1-1.64,2.11,6,6,0,0,1-3.35-.44l1.75-3.05c.21-.36.35-.72-.08-1A17.12,17.12,0,0,0,204.83,317.75Z" transform="translate(-129.34 -82.69)"/><path class="cls-3" d="M226.45,248.16a1.5,1.5,0,0,1-.53,1.05,28.12,28.12,0,0,1-3-4.1c.39-.62.71-.64,1.16,0C224.84,246.16,225.67,247.15,226.45,248.16Z" transform="translate(-129.34 -82.69)"/><path class="cls-1" d="M216.83,281.31a5.11,5.11,0,0,1,1.29-2.33c7.35-10.83,15.25-21.25,23.39-31.49s16.51-20.3,25-30.22c5.53-6.45,11.19-12.79,16.85-19.13,10-11.21,20.33-22.1,30.86-32.82,2.32-2.37,4.66-4.72,7-7.12.57-.6,1-.63,1.51,0,.79.93,1.67,1.79,2.51,2.68-2,2.63-4.3,4.94-6.48,7.38q-12,13.42-24.08,26.82-11.31,12.56-22.63,25.1T249.7,245.07q-9.15,10.19-18.34,20.34l-13.46,15C217.59,280.76,217.34,281.19,216.83,281.31Z" transform="translate(-129.34 -82.69)"/><path class="cls-1" d="M185,304.34a1.61,1.61,0,0,1,2.12-.86c.85.26,1.73.4,2.6.6-.06.22-.13.44-.2.66-.27.91-.66,1.3-1.67.71A18.11,18.11,0,0,0,185,304.34Z" transform="translate(-129.34 -82.69)"/><path class="cls-4" d="M216.58,281.66a.27.27,0,0,1,.26-.36A.31.31,0,0,1,216.58,281.66Z" transform="translate(-129.34 -82.69)"/><path class="cls-4" d="M216.25,281.9c.07-.14.15-.28.35-.26A.28.28,0,0,1,216.25,281.9Z" transform="translate(-129.34 -82.69)"/><path class="cls-4" d="M184.71,304.3h0Z" transform="translate(-129.34 -82.69)"/></svg>