<svg id="Layer_1" data-name="Layer 1" xmlns="http://www.w3.org/2000/svg" viewBox="0 0 455.72 107.55"><defs><style>.cls-1{fill:#1eb2a6;}</style></defs><title>inkwell</title><polygon class="cls-1" points="92.21 75.15 63.78 31.91 44.81 31.91 44.81 106.33 64.15 106.33 64.15 63.29 92.58 106.33 111.55 106.33 111.55 31.91 92.21 31.91 92.21 75.15"/><polygon class="cls-1" points="188.13 31.91 165.22 31.91 142.15 62.28 142.15 31.91 122.81 31.91 122.81 106.33 142.15 106.33 142.15 75.76 165.43 106.33 189.16 106.33 159.28 68.4 188.13 31.91"/><polygon class="cls-1" points="269.71 81.9 258.11 32.5 257.97 31.88 237.2 31.88 224.95 81.96 215.05 31.88 194.38 31.88 213.25 106.3 235.97 106.3 247.36 60.93 258.36 106.3 281.08 106.3 300.22 32.88 300.48 31.88 279.7 31.88 269.71 81.9"/><polygon class="cls-1" points="307.56 106.3 353.76 106.3 353.76 90.48 326.9 90.48 326.9 76.11 350.65 76.11 350.65 60.82 326.9 60.82 326.9 47.69 353.76 47.69 353.76 31.88 307.56 31.88 307.56 106.3"/><polygon class="cls-1" points="383.01 31.88 363.67 31.88 363.67 106.3 406.25 106.3 406.25 91 383.01 91 383.01 31.88"/><polygon class="cls-1" points="432.49 91 432.49 31.88 413.15 31.88 413.15 106.3 455.72 106.3 455.72 91 432.49 91"/><polygon class="cls-1" points="12.94 107.55 13.27 107.47 13.27 107.55 12.94 107.55"/><polygon class="cls-1" points="12.94 107.55 12.94 107.47 13.27 107.55 12.94 107.55"/><path class="cls-1" d="M35.37,279.79V238.85l-8.5-35.92v31.89a7.17,7.17,0,1,1-3,0V202.93l-8.49,35.92v40.94Z" transform="translate(-12.28 -172.32)"/><circle class="cls-1" cx="13.1" cy="13.1" r="13.1"/></svg>