<svg id="Layer_1" data-name="Layer 1" xmlns="http://www.w3.org/2000/svg" viewBox="0 0 448.56 93.62"><defs><style>.cls-1{fill:#b3b3b3;}.cls-2{fill:#1eb2a6;}.cls-3{fill:#f2f2f2;}.cls-4{fill:#fefefe;}.cls-5{fill:#f48634;}</style></defs><title>inkwell-logo-color</title><path class="cls-1" d="M25.65,269.85a34.64,34.64,0,0,1-11.19-17.54,34.71,34.71,0,0,1,26.26-42.93,34.63,34.63,0,0,1,16.25.43,34.12,34.12,0,0,1,9.79,4.35c.17.1.32.21.48.32L65.68,216c-1.86,1.85-3.7,3.71-5.5,5.6a93.43,93.43,0,0,0-9.07,11,95.66,95.66,0,0,0-5.66,9.3c-.81,1.51-1.58,3-2.37,4.55-.24-.31-.5-.62-.72-.94s-.24-.19-.36,0a2.69,2.69,0,0,1-.55-.66c-.16-.2-.24-.2-.35,0-.25.54-.51,1.08-.77,1.61l-4.38,9-1,2.06c-.32-.39-.3-.88-.63-1.27-.11.25-.22.47-.3.69-.56,1.46-.94,3-1.4,4.48-.17.58-.17.57-.73.34a8.55,8.55,0,0,0-3.63-.77c-1.17.05-1.65.67-1.39,1.8a5.89,5.89,0,0,0,.88,1.86c.26.39.26.39.57.08l.43.68c-.57.82-1.13,1.64-1.7,2.45Z" transform="translate(-13.3 -195.72)"/><path class="cls-2" d="M43.08,246.47c.79-1.52,1.56-3,2.37-4.55a95.66,95.66,0,0,1,5.66-9.3,93.43,93.43,0,0,1,9.07-11c1.8-1.89,3.64-3.75,5.5-5.6l1.56-1.56c1.87-1.7,3.85-3.26,5.84-4.8q5-3.81,10.1-7.33c2.32-1.58,4.67-3.13,7.12-4.52A21.78,21.78,0,0,1,94.16,196a8.56,8.56,0,0,1,.87-.23c.24-.06.35,0,.37.29a13.33,13.33,0,0,1-.17,3.51,36.63,36.63,0,0,1-2.87,9.25,46.27,46.27,0,0,1-3.78,6.54,52.51,52.51,0,0,1-5.78,7.18,38.82,38.82,0,0,1-6,4.94c-1.28.88-2.62,1.67-3.87,2.59-.08.06-.23.1-.19.22s.15.11.24.13a4.08,4.08,0,0,0,.9.28c.08.1.2.11.32.15l1.87.68-.15.26c-.09,0-.12.07-.17.12-.58.55-1.16,1.11-1.75,1.64a75.56,75.56,0,0,1-7.06,5.55,45.18,45.18,0,0,1-5.9,3.64,5.46,5.46,0,0,0-1.22.72c.7,0,1.31.08,1.93,0l3.35.15-.81.55a2.64,2.64,0,0,0-.29.15c-2.68,1.65-5.42,3.19-8.13,4.78a10.34,10.34,0,0,0-1.63,1.12,6.15,6.15,0,0,0,1.94-.12l1-.09a7.56,7.56,0,0,1,1.79-.08c-.33.37-.78.44-1.08.73a2.65,2.65,0,0,0-.3.11c-1.84.92-3.74,1.73-5.55,2.7a3.93,3.93,0,0,0-1,.65,10.2,10.2,0,0,0,1.6.16c.4.15.85.07,1.28.21-.14.21-.39.24-.51.43a2.59,2.59,0,0,0-.29.14l-4.55,3a.17.17,0,0,0-.1.16,6.61,6.61,0,0,0,1.17.36c.2.09.44.16.16.43a21.28,21.28,0,0,1-2.85,1.93,30.4,30.4,0,0,1-10.16,3.6l-.27.05c0,.17.21.24.32.34a11.48,11.48,0,0,1,3,3.83,3.42,3.42,0,0,1,.27,1.09,1.21,1.21,0,0,1-1,1.39,4.08,4.08,0,0,1-1.74.05,9,9,0,0,1-2.09-.59c-.26-.12-.4-.1-.54.18-.81,1.59-1.67,3.17-2.48,4.77q-1.52,3-3,6c-.11.23-.31.25-.5.31a25.13,25.13,0,0,0-3.74,1.4,17.45,17.45,0,0,0-5.21,3.71c-.58.6-.58.59-1.25.12s-.59-.43-.14-1A14.61,14.61,0,0,1,27,281a.79.79,0,0,0,.6-.49l5.31-10.68c.29-.58.57-1.15.85-1.73a4.44,4.44,0,0,1,1.17-1.54c.51.44,1,.87,1.57,1.26A5.37,5.37,0,0,1,35.8,269c-.1.19-.11.3.12.36a3.24,3.24,0,0,0,.79.23,1.83,1.83,0,0,0,1,.13.5.5,0,0,0,.5-.64,1.72,1.72,0,0,0-.31-.77,10.4,10.4,0,0,0-2.48-2.56c-.77-.71-.76-.71-1.43.08a8,8,0,0,0-1,1.81c-1.44,2.85-2.86,5.72-4.28,8.58-.61,1.22-1.21,2.43-1.81,3.65a.51.51,0,0,1-.39.33,18.26,18.26,0,0,0-7.57,4,27.4,27.4,0,0,0-3.45,3.53.5.5,0,0,0-.13.58.71.71,0,0,1-.46.93.68.68,0,0,1-.86-.34.75.75,0,0,1,.35-1,.82.82,0,0,0,.43-.39c1.71-3.28,3.57-6.48,5.52-9.62a.44.44,0,0,1,.46-.24,1.93,1.93,0,0,0,1.68-1.25,1.38,1.38,0,0,0-.07-1.51c-.12-.14,0-.22,0-.32,1-1.46,1.91-2.92,2.9-4.35a3.91,3.91,0,0,0,.26-.44l1.39-2c.57-.81,1.13-1.63,1.7-2.45l1.19-1.59c.09-.12.16-.25.35-.18h0l.1,0a5.37,5.37,0,0,1,.87.33c.31.18.43.07.51-.21,0-.07,0-.14.07-.21s0-.23-.12-.28a5.67,5.67,0,0,0-1.77-.53c-.11,0-.21,0-.29.08a22.31,22.31,0,0,0-1.34,1.89c-.31.31-.31.31-.57-.08a5.89,5.89,0,0,1-.88-1.86c-.26-1.13.22-1.75,1.39-1.8a8.55,8.55,0,0,1,3.63.77c.56.23.56.24.73-.34.46-1.5.84-3,1.4-4.48.08-.22.19-.44.3-.69.33.39.31.88.63,1.27l1-2.06,4.38-9c.26-.53.52-1.07.77-1.61.11-.23.19-.23.35,0a2.69,2.69,0,0,0,.55.66,9.38,9.38,0,0,0,.91,1.26A.53.53,0,0,0,43.08,246.47Zm-3,10.26h0c.06,0,.08-.05.08-.11h0c.15,0,.23-.17.32-.27l4.13-4.6,5.63-6.24q3.42-3.81,6.85-7.63l6.94-7.7L71.38,222c.67-.75,1.38-1.46,2-2.27a1.24,1.24,0,0,0,.21-.19q2.48-2.72,4.92-5.45l9.66-10.74c.38-.42.75-.85,1.13-1.28-.1-.07-.13,0-.18,0l-1.25,1q-4.45,3.63-8.68,7.54-3.87,3.57-7.6,7.3-3.1,3.09-6.12,6.27-3.52,3.71-6.92,7.52c-2.92,3.29-5.8,6.63-8.6,10s-5.46,6.75-8,10.26a70.57,70.57,0,0,0-5.21,8.06,1.18,1.18,0,0,0-.24.61c1.18-1.27,2.41-2.5,3.47-3.88A.08.08,0,0,0,40.05,256.73Z" transform="translate(-13.3 -195.72)"/><path class="cls-1" d="M64.29,244.16l.81-.55-3.35-.15a1.53,1.53,0,0,1,.21-.14,46.58,46.58,0,0,0,5.87-3.63c2-1.42,4-2.94,5.91-4.54,1-.88,2-1.79,3-2.75.19-.19.18-.28-.07-.36s-.51-.19-.75-.28l.15-.26-1.87-.68c-.12,0-.24,0-.32-.15a5.13,5.13,0,0,1,1.12-.84c1.17-.79,2.38-1.51,3.51-2.34.17-.12.27-.15.38.08a34.74,34.74,0,0,1,3,8.38,34.68,34.68,0,0,1-3.23,23.55A34.67,34.67,0,0,1,51,277.83a35.46,35.46,0,0,1-10.28-.62,33.8,33.8,0,0,1-6.51-2.08c-.29-.13-.3-.25-.17-.51.58-1.08,1.15-2.16,1.71-3.25.1-.2.2-.22.4-.14a9.78,9.78,0,0,0,2.38.66,3.5,3.5,0,0,0,1.51-.07,1.24,1.24,0,0,0,1-1.47,4.79,4.79,0,0,0-.82-2,13.42,13.42,0,0,0-2.53-2.84c-.1-.08-.29-.14-.24-.29s.24-.09.36-.11a30.17,30.17,0,0,0,11.59-4.56,9.12,9.12,0,0,0,1.21-.94c.27-.26.27-.26-.1-.39l-.73-.24c.28-.27,0-.34-.16-.43l5.2-3.42-1.43-.21c.12-.19.37-.22.51-.43-.43-.14-.88-.06-1.28-.21a4.85,4.85,0,0,1,.91-.52l4.94-2.38a6.69,6.69,0,0,0,1.36-.8,12.52,12.52,0,0,0-2,.08c.3-.29.75-.36,1.08-.73a7.56,7.56,0,0,0-1.79.08l-1,.09c.38-.24.74-.5,1.13-.71,2.81-1.58,5.57-3.24,8.32-4.9.08,0,.21-.08.22-.23Z" transform="translate(-13.3 -195.72)"/><path class="cls-3" d="M36.45,267.81c-.55-.39-1.06-.82-1.57-1.26l.57-.76a10.4,10.4,0,0,1,2.48,2.56,1.72,1.72,0,0,1,.31.77.5.5,0,0,1-.5.64,1.83,1.83,0,0,1-1-.13l.54-.94c.06-.11.11-.22,0-.31A5.28,5.28,0,0,0,36.45,267.81Z" transform="translate(-13.3 -195.72)"/><path class="cls-4" d="M43.08,246.47a.53.53,0,0,1-.17.32,9.38,9.38,0,0,1-.91-1.26c.12-.19.22-.2.36,0S42.84,246.16,43.08,246.47Z" transform="translate(-13.3 -195.72)"/><path class="cls-1" d="M40.13,256.63a1.51,1.51,0,0,1,.39-.71c2.26-3.32,4.68-6.52,7.18-9.66S52.76,240,55.37,237c1.7-2,3.43-3.92,5.17-5.86,3.06-3.44,6.23-6.78,9.46-10.07.71-.72,1.43-1.45,2.13-2.18.18-.19.3-.2.47,0s.51.55.77.82c-.61.81-1.32,1.52-2,2.27L64,230.19l-6.94,7.7q-3.44,3.81-6.85,7.63l-5.63,6.24-4.13,4.6C40.36,256.46,40.28,256.6,40.13,256.63Z" transform="translate(-13.3 -195.72)"/><path class="cls-3" d="M30.38,263.7a.49.49,0,0,1,.65-.27c.26.08.53.12.8.18,0,.07,0,.14-.07.21-.08.28-.2.39-.51.21A5.37,5.37,0,0,0,30.38,263.7Z" transform="translate(-13.3 -195.72)"/><path class="cls-5" d="M40.05,256.74c0-.07,0-.1.08-.11S40.11,256.73,40.05,256.74Z" transform="translate(-13.3 -195.72)"/><path class="cls-5" d="M40,256.81s0-.08.1-.08A.08.08,0,0,1,40,256.81Z" transform="translate(-13.3 -195.72)"/><path class="cls-5" d="M30.28,263.68Z" transform="translate(-13.3 -195.72)"/><path class="cls-2" d="M112.54,212.17V272.9H97.75V212.17Z" transform="translate(-13.3 -195.72)"/><path class="cls-2" d="M177.6,272.9H162.8l-24.74-37.46V272.9H123.27V212.17h14.79L162.8,249.8V212.17h14.8Z" transform="translate(-13.3 -195.72)"/><path class="cls-2" d="M223.53,272.9l-20.41-26.82V272.9h-14.8V212.17h14.8v26.64l20.24-26.64h17.39l-23.53,29.76,24.39,31Z" transform="translate(-13.3 -195.72)"/><path class="cls-2" d="M332.18,212.17,316.35,272.9h-17.9l-9.69-40-10,40h-17.9l-15.4-60.73h15.83l8.74,44.2,10.81-44.2h16.26l10.38,44.2,8.83-44.2Z" transform="translate(-13.3 -195.72)"/><path class="cls-2" d="M354.42,224V236.3h19.81v11.42H354.42V261h22.4V272.9h-37.2V212.17h37.2V224Z" transform="translate(-13.3 -195.72)"/><path class="cls-2" d="M401.21,261.48h19.38V272.9H386.42V212.17h14.79Z" transform="translate(-13.3 -195.72)"/><path class="cls-2" d="M442.48,261.48h19.37V272.9H427.68V212.17h14.8Z" transform="translate(-13.3 -195.72)"/></svg>